# xmcd
#
# Track frame offsets:
#	150
#	15229
#	28713
#	46058
#	69004
#	84762
#	112095
#	127766
#	143661
#	161471
#	178084
#
# Disc length: 2615 seconds
#
# Revision: 0
# Processed by: cddbd v1.5.2PL0 Copyright (c) Steve Scherf et al.
# Submitted via: EZCDAudioConverter 3.0.7.1
#
DISCID=760a350b
DTITLE=Wellbad - Judgement Days
DYEAR=2015
DGENRE=Blues
TTITLE0=A Little Pain
TTITLE1=Judgement Day
TTITLE2=Coffin for Two
TTITLE3=Good World
TTITLE4=Poor Mary
TTITLE5=Three Legged Dog
TTITLE6=Rockin' Chair
TTITLE7=One Kiss Too Late
TTITLE8=Compliment
TTITLE9=Talking French
TTITLE10=Don't Go Back to the Coal Mine
EXTD=
EXTT0=
EXTT1=
EXTT2=
EXTT3=
EXTT4=
EXTT5=
EXTT6=
EXTT7=
EXTT8=
EXTT9=
EXTT10=
PLAYORDER=
